<svg xmlns="http://www.w3.org/2000/svg" xmlns:xlink="http://www.w3.org/1999/xlink" viewBox="0 0 193.68 244.4"><defs><style>.cls-1,.cls-6{fill:none;}.cls-2,.cls-5{fill:#fff;}.cls-2,.cls-6{stroke:#333;stroke-miterlimit:10;stroke-width:2.25px;}.cls-3{clip-path:url(#clip-path);}.cls-4{fill:#333;}</style><clipPath id="clip-path" transform="translate(58.21)"><circle class="cls-1" cx="38.63" cy="38.63" r="37.5"/></clipPath></defs><g id="Layer_2" data-name="Layer 2"><g id="Capa_1" data-name="Capa 1"><circle class="cls-2" cx="96.84" cy="38.63" r="37.5"/><g class="cls-3"><circle class="cls-4" cx="96.84" cy="147.56" r="96.84"/></g><path class="cls-5" d="M25.37,57.68a1.45,1.45,0,0,0-.22-.47,1.37,1.37,0,0,0-.33-.35,1.53,1.53,0,0,0-.44-.23,2.35,2.35,0,0,0-.54-.07,1.65,1.65,0,0,0-.94.27,1.72,1.72,0,0,0-.65.77,3.4,3.4,0,0,0,0,2.51,1.74,1.74,0,0,0,.65.78,1.69,1.69,0,0,0,1,.27,1.86,1.86,0,0,0,.87-.2,1.33,1.33,0,0,0,.56-.54,1.7,1.7,0,0,0,.2-.83l.27,0H24V58.7h2.66v.79a2.79,2.79,0,0,1-.36,1.45,2.45,2.45,0,0,1-1,1,3,3,0,0,1-1.43.33,3,3,0,0,1-1.59-.41,2.8,2.8,0,0,1-1.07-1.16,4,4,0,0,1-.38-1.79,4.13,4.13,0,0,1,.23-1.41,3,3,0,0,1,.63-1.06,2.88,2.88,0,0,1,.95-.67,3.11,3.11,0,0,1,1.19-.22,3.29,3.29,0,0,1,1,.15,2.94,2.94,0,0,1,.84.45,2.81,2.81,0,0,1,.6.69,2.42,2.42,0,0,1,.31.89Z" transform="translate(58.21)"/><path class="cls-5" d="M27.78,62.13V55.59H29v5.55h2.88v1Z" transform="translate(58.21)"/><path class="cls-5" d="M37,55.59h1.19v4.27a2.32,2.32,0,0,1-.33,1.24,2.28,2.28,0,0,1-.93.83,3.42,3.42,0,0,1-2.8,0,2.25,2.25,0,0,1-.92-.83,2.32,2.32,0,0,1-.33-1.24V55.59h1.18v4.17a1.46,1.46,0,0,0,.18.73,1.29,1.29,0,0,0,.51.5,1.78,1.78,0,0,0,1.56,0,1.23,1.23,0,0,0,.51-.5,1.46,1.46,0,0,0,.18-.73Z" transform="translate(58.21)"/><path class="cls-5" d="M39.19,56.58v-1h5.22v1h-2v5.55H41.22V56.58Z" transform="translate(58.21)"/><path class="cls-5" d="M45.42,62.13V55.59h4.26v1H46.6v1.78h2.85v1H46.6v1.79h3.1v1Z" transform="translate(58.21)"/><path class="cls-5" d="M56.27,55.59v6.54H55.21l-3.08-4.46h-.06v4.46H50.89V55.59H52L55,60.05h.06V55.59Z" transform="translate(58.21)"/><path class="cls-5" d="M28.24,71.13V64.59h4.19v1h-3v1.78h2.72v1H29.43v2.78Z" transform="translate(58.21)"/><path class="cls-5" d="M33.51,71.13V64.59H36a2.69,2.69,0,0,1,1.27.26,1.84,1.84,0,0,1,.78.73,2.29,2.29,0,0,1,.26,1.1A2.22,2.22,0,0,1,38,67.77a1.71,1.71,0,0,1-.79.71,2.85,2.85,0,0,1-1.27.25H34.2v-1h1.59a1.87,1.87,0,0,0,.72-.12.9.9,0,0,0,.42-.37,1.13,1.13,0,0,0,.13-.58,1.26,1.26,0,0,0-.13-.6.9.9,0,0,0-.42-.37,1.7,1.7,0,0,0-.73-.13H34.7v5.55Zm3.38-3,1.62,3H37.19l-1.59-3Z" transform="translate(58.21)"/><path class="cls-5" d="M39.36,71.13V64.59h4.26v1H40.55v1.78H43.4v1H40.55v1.79h3.1v1Z" transform="translate(58.21)"/><path class="cls-5" d="M44.83,71.13V64.59h4.26v1H46v1.78h2.85v1H46v1.79h3.1v1Z" transform="translate(58.21)"/><path class="cls-4" d="M38.62,47.92c-.53,0-1.1-.45-1.1-1.43v-4a10.82,10.82,0,0,1-10-10.75v-.69h.69a10.82,10.82,0,0,1,3.51.59,10.79,10.79,0,0,1-4.2-8.52v-.69h.69a10.81,10.81,0,0,1,3.51.58,10.75,10.75,0,0,1-4.2-8.51v-.69h.69a10.78,10.78,0,0,1,7.11,2.68A10.78,10.78,0,0,1,38.14,6.24l.48-.49.49.49A10.77,10.77,0,0,1,41.94,16.5a10.78,10.78,0,0,1,7.11-2.68h.69v.69A10.75,10.75,0,0,1,45.54,23a10.81,10.81,0,0,1,3.51-.58h.69v.69a10.81,10.81,0,0,1-4.19,8.52,10.71,10.71,0,0,1,3.5-.59h.69v.69a10.82,10.82,0,0,1-10,10.75v4C39.73,47.47,39.16,47.92,38.62,47.92ZM34.8,33.32a10.92,10.92,0,0,1,2.72,3.1V33.87A10.19,10.19,0,0,1,34.8,33.32Zm4.93,3.1a10.92,10.92,0,0,1,2.72-3.1,10.19,10.19,0,0,1-2.72.55ZM34.8,24.7a10.78,10.78,0,0,1,2.72,3.1V25.25A10.19,10.19,0,0,1,34.8,24.7Zm4.93,3.1a10.78,10.78,0,0,1,2.72-3.1,10.19,10.19,0,0,1-2.72.55Z" transform="translate(58.21)"/><path class="cls-5" d="M38.62,6.73A10.06,10.06,0,0,1,39,20.54v2.8a10.08,10.08,0,0,1,10-8.83A10.08,10.08,0,0,1,39,24.59V32a10.09,10.09,0,0,1,10-8.84A10.08,10.08,0,0,1,39,33.21v7.38a10.09,10.09,0,0,1,10-8.84h0A10.08,10.08,0,0,1,39,41.83v4.66c0,.46-.19.74-.42.74s-.41-.28-.41-.74V41.83a10.08,10.08,0,0,1-10-10.08h0a10.09,10.09,0,0,1,10,8.84V33.21a10.08,10.08,0,0,1-10-10.08,10.09,10.09,0,0,1,10,8.84V24.59a10.08,10.08,0,0,1-10-10.08,10.09,10.09,0,0,1,10,8.84V20.54a10.07,10.07,0,0,1,.41-13.81m0-1.95-1,1a11.46,11.46,0,0,0-3.31,9.17,11.35,11.35,0,0,0-6.14-1.79H26.82v1.38a11.43,11.43,0,0,0,2.65,7.31,10.69,10.69,0,0,0-1.27-.07H26.82v1.38a11.43,11.43,0,0,0,2.65,7.31,10.69,10.69,0,0,0-1.27-.07H26.82v1.38a11.5,11.5,0,0,0,10,11.37v3.37a1.82,1.82,0,1,0,3.59,0V43.12a11.5,11.5,0,0,0,10-11.37V30.37H49.05a10.58,10.58,0,0,0-1.27.07,11.43,11.43,0,0,0,2.65-7.31V21.75H49.05a10.58,10.58,0,0,0-1.27.07,11.43,11.43,0,0,0,2.65-7.31V13.13H49.05a11.35,11.35,0,0,0-6.14,1.79A11.46,11.46,0,0,0,39.6,5.75l-1-1Z" transform="translate(58.21)"/><line class="cls-6" x1="119.98" y1="9.8" x2="63.58" y2="57.27"/></g></g></svg>