<svg xmlns="http://www.w3.org/2000/svg" viewBox="0 0 77.25 77.25"><defs><style>.cls-1{fill:#fff;stroke:#333;stroke-miterlimit:10;stroke-width:2.25px;}.cls-2{fill:#333;}</style></defs><g id="Layer_2" data-name="Layer 2"><g id="Capa_1" data-name="Capa 1"><circle class="cls-1" cx="38.63" cy="38.63" r="37.5"/><path class="cls-2" d="M28.07,54.63V14.93h15.7c8.67,0,14.76,4.81,16.63,13.27a27.25,27.25,0,0,1-1.11,16.12c-2.6,6.66-7.55,10.17-14.7,10.34-5.35.14-10.7,0-16.05,0A3.18,3.18,0,0,1,28.07,54.63ZM54.75,32.08l-.06-.21c-2.53,0-5.07,0-7.61,0A1,1,0,0,1,46,31.1C45.34,29.06,44.66,27,44,25c-.14-.42-.31-.84-.54-1.48-.18.53-.29.82-.38,1.12-.7,2.13-1.41,4.26-2.07,6.41a1,1,0,0,1-1.18.83c-1.87-.05-3.74,0-5.61,0H32c.42.33.63.52.85.68,1.87,1.36,3.73,2.73,5.62,4.06a.78.78,0,0,1,.36,1.08c-.46,1.29-.87,2.6-1.29,3.91S36.8,44,36.34,45.38l.91-.62c1.85-1.34,3.71-2.66,5.53-4a1,1,0,0,1,1.37,0c1.87,1.41,3.77,2.76,5.67,4.13.19.14.4.26.78.49-.17-.55-.28-.91-.4-1.26-.65-2-1.27-4.07-2-6.08a1.12,1.12,0,0,1,.52-1.56C50.76,35,52.75,33.53,54.75,32.08Z"/><path class="cls-2" d="M23.84,15.06h1V62.24h-1Z"/><path class="cls-2" d="M16.6,21.06V15.19h1.24v2.59h.08L20,15.19h1.49l-2.18,2.63,2.21,3.24H20.06l-1.61-2.41-.61.74v1.67Z"/><path class="cls-2" d="M21.63,26.38A3.41,3.41,0,0,1,21.26,28a2.56,2.56,0,0,1-1,1,2.77,2.77,0,0,1-1.4.35A2.83,2.83,0,0,1,17.47,29a2.56,2.56,0,0,1-1-1,3.8,3.8,0,0,1,0-3.27,2.56,2.56,0,0,1,1-1,2.83,2.83,0,0,1,1.41-.35,2.88,2.88,0,0,1,1.4.35,2.56,2.56,0,0,1,1,1A3.45,3.45,0,0,1,21.63,26.38Zm-1.26,0a2.66,2.66,0,0,0-.19-1.05,1.42,1.42,0,0,0-.52-.65,1.35,1.35,0,0,0-.78-.22,1.38,1.38,0,0,0-.79.22,1.42,1.42,0,0,0-.52.65,2.66,2.66,0,0,0-.19,1.05,2.74,2.74,0,0,0,.19,1.05,1.4,1.4,0,0,0,.52.64,1.38,1.38,0,0,0,.79.22,1.35,1.35,0,0,0,.78-.22,1.4,1.4,0,0,0,.52-.64A2.74,2.74,0,0,0,20.37,26.38Z"/><path class="cls-2" d="M19.93,33.38a.74.74,0,0,0-.3-.54,1.15,1.15,0,0,0-.71-.19,1.52,1.52,0,0,0-.51.08.73.73,0,0,0-.32.24.58.58,0,0,0-.11.34.5.5,0,0,0,.07.27.55.55,0,0,0,.2.2,1.4,1.4,0,0,0,.3.15,1.89,1.89,0,0,0,.36.1l.53.13a3.59,3.59,0,0,1,.7.23,2.22,2.22,0,0,1,.56.35,1.36,1.36,0,0,1,.36.5,1.45,1.45,0,0,1,.14.65,1.6,1.6,0,0,1-.28.93,1.73,1.73,0,0,1-.78.61,3.17,3.17,0,0,1-1.22.22,3.31,3.31,0,0,1-1.24-.22,1.84,1.84,0,0,1-.82-.65,1.87,1.87,0,0,1-.31-1.06h1.2a.93.93,0,0,0,.17.49,1,1,0,0,0,.41.3,1.7,1.7,0,0,0,.57.1,1.32,1.32,0,0,0,.55-.1.84.84,0,0,0,.37-.25.64.64,0,0,0,.12-.38.47.47,0,0,0-.11-.33.88.88,0,0,0-.34-.23,3.86,3.86,0,0,0-.54-.17L18.31,35a2.66,2.66,0,0,1-1.18-.57,1.32,1.32,0,0,1-.42-1,1.53,1.53,0,0,1,.28-.93,1.88,1.88,0,0,1,.8-.63,3.09,3.09,0,0,1,2.29,0,1.82,1.82,0,0,1,.76.63,1.67,1.67,0,0,1,.28.92Z"/><path class="cls-2" d="M16.37,45.82V39.94h1.24v2.43h2.53V39.94h1.23v5.88H20.14V43.39H17.61v2.43Z"/><path class="cls-2" d="M16.91,54.07V48.19h4v1H18.15v1.4h2.52v1H18.15V53h2.73v1Z"/><path class="cls-2" d="M16.74,62.32V56.44h2.31a2.46,2.46,0,0,1,1.14.24,1.73,1.73,0,0,1,.72.67,1.94,1.94,0,0,1,.25,1,2,2,0,0,1-.25,1,1.69,1.69,0,0,1-.73.64,2.73,2.73,0,0,1-1.16.23H17.47v-1h1.35a1.45,1.45,0,0,0,.59-.1.64.64,0,0,0,.35-.29.91.91,0,0,0,.12-.49.94.94,0,0,0-.12-.49.72.72,0,0,0-.35-.31,1.51,1.51,0,0,0-.6-.1H18v4.86Zm3.17-2.68,1.46,2.68H20l-1.43-2.68Z"/><path class="cls-2" d="M30.16,62.32H28.07V56.44h2.1a3.09,3.09,0,0,1,1.53.36,2.36,2.36,0,0,1,1,1A3.38,3.38,0,0,1,33,59.38,3.34,3.34,0,0,1,32.68,61a2.35,2.35,0,0,1-1,1A3.06,3.06,0,0,1,30.16,62.32Zm-.84-1.07h.78a2,2,0,0,0,.93-.19,1.3,1.3,0,0,0,.57-.61,2.56,2.56,0,0,0,.19-1.07,2.53,2.53,0,0,0-.19-1.07A1.3,1.3,0,0,0,31,57.7a2,2,0,0,0-.92-.19h-.79Z"/><path class="cls-2" d="M36.08,62.32H34.75l2-5.88h1.6l2,5.88H39.07L37.6,57.79h0ZM36,60h3.14v1H36Z"/><path class="cls-2" d="M43.81,56.44v5.88H42.56V56.44Z"/><path class="cls-2" d="M46.28,62.32V56.44H48.6a2.52,2.52,0,0,1,1.14.24,1.73,1.73,0,0,1,.72.67,2,2,0,0,1,.25,1,1.92,1.92,0,0,1-.26,1,1.58,1.58,0,0,1-.73.64,2.65,2.65,0,0,1-1.15.23H47v-1h1.35a1.45,1.45,0,0,0,.59-.1.68.68,0,0,0,.35-.29.91.91,0,0,0,.12-.49.94.94,0,0,0-.12-.49.76.76,0,0,0-.35-.31,1.51,1.51,0,0,0-.6-.1h-.83v4.86Zm3.18-2.68,1.46,2.68H49.54l-1.42-2.68Z"/><path class="cls-2" d="M52.05,56.44h1.39L54.78,59h0l1.34-2.53h1.39l-2.14,3.8v2.08H54.19V60.24Z"/></g></g></svg>