<svg xmlns="http://www.w3.org/2000/svg" xmlns:xlink="http://www.w3.org/1999/xlink" viewBox="0 0 193.68 244.4"><defs><style>.cls-1,.cls-6{fill:none;}.cls-2,.cls-5{fill:#fff;}.cls-2,.cls-6{stroke:#333;stroke-miterlimit:10;stroke-width:2.25px;}.cls-3{clip-path:url(#clip-path);}.cls-4{fill:#333;}</style><clipPath id="clip-path" transform="translate(58.21)"><circle class="cls-1" cx="38.63" cy="38.63" r="37.5"/></clipPath></defs><g id="Layer_2" data-name="Layer 2"><g id="Capa_1" data-name="Capa 1"><circle class="cls-2" cx="96.84" cy="38.63" r="37.5"/><g class="cls-3"><circle class="cls-4" cx="96.84" cy="147.56" r="96.84"/></g><path class="cls-5" d="M20.78,62.13V55.59h2.46a2.55,2.55,0,0,1,1.26.28,1.87,1.87,0,0,1,.78.77,2.52,2.52,0,0,1,0,2.23,1.89,1.89,0,0,1-.79.77,2.59,2.59,0,0,1-1.27.28H21.59v-1h1.47a1.54,1.54,0,0,0,.72-.15,1,1,0,0,0,.42-.42,1.38,1.38,0,0,0,.13-.62,1.31,1.31,0,0,0-.13-.61,1,1,0,0,0-.42-.42,1.69,1.69,0,0,0-.73-.14H22v5.55Z" transform="translate(58.21)"/><path class="cls-5" d="M26.57,62.13V55.59h4.26v1H27.76v1.78h2.85v1H27.76v1.79h3.09v1Z" transform="translate(58.21)"/><path class="cls-5" d="M32.88,62.13H31.61l2.31-6.54h1.46l2.31,6.54H36.43l-1.75-5.2h0Zm0-2.57h3.45v1H32.92Z" transform="translate(58.21)"/><path class="cls-5" d="M43.93,55.59v6.54h-1l-3.09-4.46h0v4.46H38.55V55.59h1.06l3.09,4.46h0V55.59Z" transform="translate(58.21)"/><path class="cls-5" d="M49.35,55.59h1.18v4.27a2.32,2.32,0,0,1-.33,1.24,2.28,2.28,0,0,1-.93.83,3.39,3.39,0,0,1-2.79,0,2.28,2.28,0,0,1-.93-.83,2.32,2.32,0,0,1-.33-1.24V55.59h1.19v4.17a1.46,1.46,0,0,0,.18.73,1.29,1.29,0,0,0,.51.5,1.78,1.78,0,0,0,1.56,0,1.29,1.29,0,0,0,.51-.5,1.46,1.46,0,0,0,.18-.73Z" transform="translate(58.21)"/><path class="cls-5" d="M51.54,56.58v-1h5.22v1h-2v5.55H53.56V56.58Z" transform="translate(58.21)"/><path class="cls-5" d="M28.24,71.13V64.59h4.19v1h-3v1.78h2.72v1H29.43v2.78Z" transform="translate(58.21)"/><path class="cls-5" d="M33.51,71.13V64.59H36a2.69,2.69,0,0,1,1.27.26,1.84,1.84,0,0,1,.78.73,2.29,2.29,0,0,1,.26,1.1A2.22,2.22,0,0,1,38,67.77a1.71,1.71,0,0,1-.79.71,2.85,2.85,0,0,1-1.27.25H34.2v-1h1.59a1.87,1.87,0,0,0,.72-.12.9.9,0,0,0,.42-.37,1.13,1.13,0,0,0,.13-.58,1.26,1.26,0,0,0-.13-.6.9.9,0,0,0-.42-.37,1.7,1.7,0,0,0-.73-.13H34.7v5.55Zm3.38-3,1.62,3H37.19l-1.59-3Z" transform="translate(58.21)"/><path class="cls-5" d="M39.36,71.13V64.59h4.26v1H40.55v1.78H43.4v1H40.55v1.79h3.1v1Z" transform="translate(58.21)"/><path class="cls-5" d="M44.83,71.13V64.59h4.26v1H46v1.78h2.85v1H46v1.79h3.1v1Z" transform="translate(58.21)"/><path class="cls-4" d="M38.63,48.45A12.21,12.21,0,0,1,26.44,36.26a12.07,12.07,0,0,1,.86-4.49,11.3,11.3,0,0,1,.51-1.12,22.78,22.78,0,0,0,2.05-6.23,24.7,24.7,0,0,0-.52-6,20.36,20.36,0,0,1-.47-3,9.76,9.76,0,1,1,19.51,0c0,.13,0,.27,0,.4s0,.56,0,.73c-.12,1.33-.39,4.79-.39,7.57a19.18,19.18,0,0,0,1.65,6.76c.13.26.26.57.39.89A12.19,12.19,0,0,1,38.63,48.45Z" transform="translate(58.21)"/><path class="cls-5" d="M38.62,6.45a9,9,0,0,1,9,9v.37s0,.51-.06.67c-.12,1.43-.39,4.87-.39,7.66a20.27,20.27,0,0,0,1.7,7.05q.21.42.39.87h0a11.43,11.43,0,1,1-21.28,0h0c.15-.36.31-.71.49-1.06.72-1.63,2-4.76,2.13-6.52a25.81,25.81,0,0,0-.53-6.16,19.83,19.83,0,0,1-.46-2.85,9,9,0,0,1,9-9m0-1.5a10.52,10.52,0,0,0-10.5,10.51,20.93,20.93,0,0,0,.49,3.16,25.13,25.13,0,0,1,.51,5.75,23.1,23.1,0,0,1-2,6c-.19.38-.37.76-.52,1.15a12.93,12.93,0,1,0,24.07,0c-.13-.31-.27-.63-.42-.94a19.12,19.12,0,0,1-1.57-6.43c0-2.75.27-6.18.39-7.53,0-.13,0-.71,0-.71,0-.17,0-.31,0-.46A10.52,10.52,0,0,0,38.62,5Z" transform="translate(58.21)"/><path class="cls-5" d="M33,38.08c-.9.41-1.14,1.81-.54,3.12s1.82,2,2.72,1.61,1.15-1.81.55-3.12S33.92,37.66,33,38.08Zm1.25-2.25c.54-.25.68-1.08.32-1.86S33.5,32.76,33,33s-.69,1.08-.33,1.86S33.72,36.08,34.26,35.83Zm4.09.86c-.4-.86-1.2-1.33-1.79-1.06s-.76,1.19-.36,2S37.4,39,38,38.75,38.75,37.55,38.35,36.69Z" transform="translate(58.21)"/><line class="cls-6" x1="120.07" y1="9.8" x2="63.67" y2="57.27"/></g></g></svg>