<svg xmlns="http://www.w3.org/2000/svg" xmlns:xlink="http://www.w3.org/1999/xlink" viewBox="0 0 193.68 244.4"><defs><style>.cls-1,.cls-6{fill:none;}.cls-2,.cls-5{fill:#fff;}.cls-2,.cls-6{stroke:#333;stroke-miterlimit:10;stroke-width:2.25px;}.cls-3{clip-path:url(#clip-path);}.cls-4{fill:#333;}</style><clipPath id="clip-path" transform="translate(58.21)"><circle class="cls-1" cx="38.63" cy="38.63" r="37.5"/></clipPath></defs><g id="Layer_2" data-name="Layer 2"><g id="Capa_1" data-name="Capa 1"><circle class="cls-2" cx="96.84" cy="38.63" r="37.5"/><g class="cls-3"><circle class="cls-4" cx="96.84" cy="147.56" r="96.84"/></g><path class="cls-5" d="M21.44,57.93v6.55H20.38L17.3,60h-.06v4.46H16.06V57.93h1.06L20.2,62.4h.06V57.93Z" transform="translate(58.21)"/><path class="cls-5" d="M28.57,61.21A3.9,3.9,0,0,1,28.18,63a2.84,2.84,0,0,1-1.07,1.15,3,3,0,0,1-1.54.4,2.92,2.92,0,0,1-1.54-.4A2.82,2.82,0,0,1,23,63a4.37,4.37,0,0,1,0-3.61A2.89,2.89,0,0,1,24,58.24a3,3,0,0,1,1.54-.39,3.07,3.07,0,0,1,1.54.39,2.86,2.86,0,0,1,1.07,1.16A3.87,3.87,0,0,1,28.57,61.21Zm-1.19,0A3.12,3.12,0,0,0,27.15,60a1.78,1.78,0,0,0-.64-.78,1.75,1.75,0,0,0-.94-.26,1.78,1.78,0,0,0-.95.26A1.85,1.85,0,0,0,24,60a3.54,3.54,0,0,0,0,2.51,1.74,1.74,0,0,0,.64.78,1.7,1.7,0,0,0,.95.27,1.67,1.67,0,0,0,1.58-1A3.1,3.1,0,0,0,27.38,61.21Z" transform="translate(58.21)"/><path class="cls-5" d="M35.08,57.93v6.55H34L30.94,60h-.06v4.46H29.7V57.93h1.06l3.08,4.47h.06V57.93Z" transform="translate(58.21)"/><path class="cls-5" d="M39.29,60.73v1H36.34v-1Z" transform="translate(58.21)"/><path class="cls-5" d="M44.94,60a1.5,1.5,0,0,0-.22-.46,1.23,1.23,0,0,0-.33-.35A1.32,1.32,0,0,0,44,59a1.9,1.9,0,0,0-.54-.07,1.72,1.72,0,0,0-.94.26,1.8,1.8,0,0,0-.65.78,2.93,2.93,0,0,0-.24,1.25,3,3,0,0,0,.24,1.26,1.74,1.74,0,0,0,.65.78,1.71,1.71,0,0,0,1,.27,1.86,1.86,0,0,0,.87-.2,1.33,1.33,0,0,0,.56-.54,1.7,1.7,0,0,0,.2-.83l.27,0H43.55v-.93h2.66v.79a2.79,2.79,0,0,1-.36,1.45,2.45,2.45,0,0,1-1,.95,3,3,0,0,1-1.43.33,3,3,0,0,1-1.59-.41A2.8,2.8,0,0,1,40.77,63a4,4,0,0,1-.38-1.79,4.13,4.13,0,0,1,.23-1.41,3,3,0,0,1,.63-1.06,2.88,2.88,0,0,1,1-.67,3.11,3.11,0,0,1,1.19-.22,3.29,3.29,0,0,1,1,.15,2.58,2.58,0,0,1,1.44,1.14,2.43,2.43,0,0,1,.31.88Z" transform="translate(58.21)"/><path class="cls-5" d="M47.35,57.93H48.8l2,4.75h.07l2-4.75h1.45v6.55H53.08V60H53l-1.81,4.48h-.85L48.55,60h-.06v4.51H47.35Z" transform="translate(58.21)"/><path class="cls-5" d="M61.36,61.21A3.78,3.78,0,0,1,61,63a2.84,2.84,0,0,1-1.07,1.15,3.16,3.16,0,0,1-3.08,0A2.8,2.8,0,0,1,55.74,63a4.27,4.27,0,0,1,0-3.61,2.86,2.86,0,0,1,1.07-1.16,3.24,3.24,0,0,1,3.08,0A2.86,2.86,0,0,1,61,59.4,3.75,3.75,0,0,1,61.36,61.21Zm-1.19,0A3,3,0,0,0,59.93,60a1.64,1.64,0,0,0-1.58-1,1.75,1.75,0,0,0-.94.26,1.78,1.78,0,0,0-.64.78,3.54,3.54,0,0,0,0,2.51,1.67,1.67,0,0,0,1.58,1,1.65,1.65,0,0,0,.94-.27,1.62,1.62,0,0,0,.64-.78A2.93,2.93,0,0,0,60.17,61.21Z" transform="translate(58.21)"/><path class="cls-4" d="M52.07,46.7h-27c-1.94,0-3.36-1.12-3.36-2.65a4.51,4.51,0,0,1,.71-2.5l11-18.91V10.38c-1-1-1.36-1.69-1.16-2.17.07-.17.27-.45.85-.45h.13a2.51,2.51,0,0,1,.51,0,4.53,4.53,0,0,1,.71,0h8.22a4.41,4.41,0,0,1,.71,0,2.51,2.51,0,0,1,.51,0H44c.59,0,.79.28.86.45.2.48-.16,1.15-1.17,2.17V22.64l11,18.91a4.51,4.51,0,0,1,.71,2.5C55.44,45.58,54,46.7,52.07,46.7Z" transform="translate(58.21)"/><path class="cls-5" d="M31.48,30l-6.8,11.29a3.6,3.6,0,0,0-.39,2.38c.35,1,1.3,1.35,3.7,1.31,3.12-.06,22.4,0,22.4,0s2.07.22,2.45-1.23c.42-1.61-.23-2.4-1.46-4.33s-5.31-8.6-5.31-8.6A6.23,6.23,0,0,1,43,32.23a11.35,11.35,0,0,1-5.84-.57C35.69,31.13,32.06,29.31,31.48,30Z" transform="translate(58.21)"/><line class="cls-6" x1="120.07" y1="9.8" x2="63.67" y2="57.27"/></g></g></svg>