<svg xmlns="http://www.w3.org/2000/svg" xmlns:xlink="http://www.w3.org/1999/xlink" viewBox="0 0 193.68 244.4"><defs><style>.cls-1,.cls-7{fill:none;}.cls-2,.cls-5{fill:#fff;}.cls-2,.cls-7{stroke:#333;stroke-miterlimit:10;stroke-width:2.25px;}.cls-3{clip-path:url(#clip-path);}.cls-4,.cls-6{fill:#333;}.cls-6{stroke:#fff;stroke-linecap:round;stroke-linejoin:round;stroke-width:1.75px;}</style><clipPath id="clip-path" transform="translate(58.21)"><circle class="cls-1" cx="38.63" cy="38.63" r="37.5"/></clipPath></defs><g id="Layer_2" data-name="Layer 2"><g id="Capa_1" data-name="Capa 1"><circle class="cls-2" cx="96.84" cy="38.63" r="37.5"/><g class="cls-3"><circle class="cls-4" cx="96.84" cy="147.56" r="96.84"/></g><path class="cls-5" d="M27.81,62.13H25.59V55.59h2.27a3.38,3.38,0,0,1,1.67.39,2.6,2.6,0,0,1,1.08,1.12A3.8,3.8,0,0,1,31,58.85a3.84,3.84,0,0,1-.38,1.76,2.64,2.64,0,0,1-1.09,1.13A3.49,3.49,0,0,1,27.81,62.13Zm-1-1h1a2.29,2.29,0,0,0,1.14-.25,1.49,1.49,0,0,0,.69-.75,3.51,3.51,0,0,0,0-2.5,1.53,1.53,0,0,0-.68-.74,2.22,2.22,0,0,0-1.11-.25h-1Z" transform="translate(58.21)"/><path class="cls-5" d="M32.61,62.13H31.34l2.3-6.54h1.47l2.31,6.54H36.15l-1.75-5.2h0Zm0-2.57H36.1v1H32.65Z" transform="translate(58.21)"/><path class="cls-5" d="M39.46,55.59v6.54H38.28V55.59Z" transform="translate(58.21)"/><path class="cls-5" d="M40.75,62.13V55.59h2.46a2.67,2.67,0,0,1,1.26.26,1.78,1.78,0,0,1,.78.73,2.18,2.18,0,0,1,.26,1.1,2.12,2.12,0,0,1-.26,1.09,1.71,1.71,0,0,1-.79.71,2.85,2.85,0,0,1-1.27.25H41.44v-1H43a1.8,1.8,0,0,0,.72-.12.9.9,0,0,0,.42-.37,1.13,1.13,0,0,0,.14-.58,1.27,1.27,0,0,0-.14-.6.85.85,0,0,0-.42-.37,1.7,1.7,0,0,0-.73-.13H41.94v5.55Zm3.38-3,1.62,3H44.43l-1.59-3Z" transform="translate(58.21)"/><path class="cls-5" d="M46.16,55.59H47.5l1.6,2.89h.06l1.61-2.89H52.1l-2.38,4.1v2.44H48.54V59.69Z" transform="translate(58.21)"/><path class="cls-5" d="M28.24,71.13V64.59h4.19v1h-3v1.78h2.72v1H29.43v2.78Z" transform="translate(58.21)"/><path class="cls-5" d="M33.51,71.13V64.59H36a2.69,2.69,0,0,1,1.27.26,1.84,1.84,0,0,1,.78.73,2.29,2.29,0,0,1,.26,1.1A2.12,2.12,0,0,1,38,67.77a1.64,1.64,0,0,1-.78.71,2.85,2.85,0,0,1-1.27.25H34.2v-1h1.59a1.87,1.87,0,0,0,.72-.12.9.9,0,0,0,.42-.37,1.13,1.13,0,0,0,.13-.58,1.26,1.26,0,0,0-.13-.6.9.9,0,0,0-.42-.37,1.7,1.7,0,0,0-.73-.13H34.7v5.55Zm3.38-3,1.62,3H37.19l-1.59-3Z" transform="translate(58.21)"/><path class="cls-5" d="M39.36,71.13V64.59h4.26v1H40.55v1.78H43.4v1H40.55v1.79h3.1v1Z" transform="translate(58.21)"/><path class="cls-5" d="M44.83,71.13V64.59h4.26v1H46v1.78h2.85v1H46v1.79h3.1v1Z" transform="translate(58.21)"/><polygon class="cls-6" points="109.85 46.31 92.5 49.06 92.5 20.04 109.85 17.3 109.85 46.31"/><polygon class="cls-6" points="83.83 46.32 92.5 49.06 92.5 20.04 83.83 17.3 83.83 46.32"/><polygon class="cls-6" points="92.5 20.04 83.83 17.3 88.17 11.95 92.5 20.04"/><polygon class="cls-6" points="88.17 11.95 92.5 20.04 92.5 20.04 109.85 17.3 104.41 10.2 88.17 11.95"/><polygon class="cls-6" points="88.17 11.95 104.41 10.2 104.41 5.56 88.17 7 88.17 11.95"/><line class="cls-7" x1="119.98" y1="9.8" x2="63.58" y2="57.27"/></g></g></svg>