<svg xmlns="http://www.w3.org/2000/svg" xmlns:xlink="http://www.w3.org/1999/xlink" viewBox="0 0 193.68 244.4"><defs><style>.cls-1{fill:none;}.cls-2,.cls-5{fill:#fff;}.cls-2{stroke:#333;stroke-miterlimit:10;stroke-width:2.25px;}.cls-3{clip-path:url(#clip-path);}.cls-4,.cls-6{fill:#333;}.cls-6{fill-rule:evenodd;}</style><clipPath id="clip-path" transform="translate(58.21)"><circle class="cls-1" cx="38.63" cy="38.63" r="37.5"/></clipPath></defs><g id="Layer_2" data-name="Layer 2"><g id="Capa_1" data-name="Capa 1"><circle class="cls-2" cx="96.84" cy="38.63" r="37.5"/><g class="cls-3"><circle class="cls-4" cx="96.84" cy="147.56" r="96.84"/></g><path class="cls-5" d="M21,66.48V59.93h1.19v3h.08l2.55-3h1.45l-2.53,2.94,2.55,3.61H24.85l-2-2.81-.72.86v2Z" transform="translate(58.21)"/><path class="cls-5" d="M32.57,63.21A3.9,3.9,0,0,1,32.18,65a2.79,2.79,0,0,1-1.08,1.15,3.15,3.15,0,0,1-3.07,0A2.82,2.82,0,0,1,27,65a4.37,4.37,0,0,1,0-3.61A2.89,2.89,0,0,1,28,60.24a3.22,3.22,0,0,1,3.07,0,2.82,2.82,0,0,1,1.08,1.16A3.87,3.87,0,0,1,32.57,63.21Zm-1.19,0A3.12,3.12,0,0,0,31.15,62a1.78,1.78,0,0,0-.64-.78,1.75,1.75,0,0,0-.94-.26,1.78,1.78,0,0,0-.95.26A1.85,1.85,0,0,0,28,62a3.54,3.54,0,0,0,0,2.51,1.74,1.74,0,0,0,.64.78,1.7,1.7,0,0,0,.95.27,1.67,1.67,0,0,0,1.58-1.05A3.1,3.1,0,0,0,31.38,63.21Z" transform="translate(58.21)"/><path class="cls-5" d="M37.26,61.73a.88.88,0,0,0-.38-.65,1.51,1.51,0,0,0-.86-.23,1.65,1.65,0,0,0-.63.11,1,1,0,0,0-.41.3.77.77,0,0,0-.14.44.69.69,0,0,0,.09.36.78.78,0,0,0,.26.25,1.49,1.49,0,0,0,.36.17,2.64,2.64,0,0,0,.4.12l.61.16a3.56,3.56,0,0,1,.72.23,2.48,2.48,0,0,1,.61.37,1.64,1.64,0,0,1,.44.54,1.83,1.83,0,0,1-.14,1.75,1.88,1.88,0,0,1-.85.68,3.17,3.17,0,0,1-1.34.25,3.31,3.31,0,0,1-1.32-.24,1.91,1.91,0,0,1-.88-.69,2,2,0,0,1-.34-1.1h1.17a1.09,1.09,0,0,0,.21.57,1,1,0,0,0,.48.33,1.81,1.81,0,0,0,.67.12,1.76,1.76,0,0,0,.68-.12,1.07,1.07,0,0,0,.46-.33.77.77,0,0,0,.17-.49.6.6,0,0,0-.15-.42,1.06,1.06,0,0,0-.41-.28,3,3,0,0,0-.62-.2l-.74-.2a3,3,0,0,1-1.28-.63,1.45,1.45,0,0,1-.47-1.12,1.7,1.7,0,0,1,.32-1,2.07,2.07,0,0,1,.86-.67A3,3,0,0,1,36,59.85a2.92,2.92,0,0,1,1.22.24,2,2,0,0,1,.83.66,1.78,1.78,0,0,1,.31,1Z" transform="translate(58.21)"/><path class="cls-5" d="M39.54,66.48V59.93h1.19v2.78h3V59.93H45v6.55H43.76V63.7h-3v2.78Z" transform="translate(58.21)"/><path class="cls-5" d="M46.24,66.48V59.93h4.25v1H47.42v1.78h2.85v1H47.42v1.79h3.1v1Z" transform="translate(58.21)"/><path class="cls-5" d="M51.7,66.48V59.93h2.46a2.74,2.74,0,0,1,1.27.27,1.76,1.76,0,0,1,.77.73,2.16,2.16,0,0,1,.27,1.1,2.12,2.12,0,0,1-.27,1.09,1.74,1.74,0,0,1-.78.71,2.89,2.89,0,0,1-1.28.25H52.39v-1H54a1.89,1.89,0,0,0,.73-.12.93.93,0,0,0,.41-.37,1.13,1.13,0,0,0,.14-.58,1.27,1.27,0,0,0-.14-.6.92.92,0,0,0-.42-.38,1.83,1.83,0,0,0-.72-.12H52.89v5.55Zm3.39-3,1.62,3H55.38l-1.59-3Z" transform="translate(58.21)"/><path class="cls-6" d="M30.66,25c-1.93-2-1.93-3.68-.12-5.85.89.33,1.69.71,2.52.94,1.61.44,2,.88,2,2.6V25c-2.13,0-2.59,1.46-2.63,3.05a10.69,10.69,0,0,0,1.93,6.53l3.48-9.27c-2.18-2.24-2.23-4.17-.36-6.18a18.68,18.68,0,0,0,2.3.92c1.77.45,2.13.84,2.17,2.7,0,.71,0,1.43,0,2.29l-1.89.24-3.52,9.5c2.87.85,3.62.52,4.94-1.73,1.48-2.49,3-4.93,4.66-7.53-1.27-.72-3.2-.87-3.24-2.89a4.71,4.71,0,0,1,1.18-3.54c1,.38,1.81.76,2.65,1,1.52.41,2,1,2.1,2.59a7.68,7.68,0,0,1-1.23,4.7c-2.1,3.39-4,6.92-5.74,10.51C41,39.61,40,40.45,38,40.2a25.76,25.76,0,0,0-3.93,0,1.5,1.5,0,0,1-1.76-1.24c-.66-3.27-1.37-6.53-1.88-9.82A20.5,20.5,0,0,1,30.66,25Z" transform="translate(58.21)"/><path class="cls-6" d="M58,32.59c-.81.52-1.27.24-1.81-.27-1.43-1.37-1.45-1.32-3-.24a5.68,5.68,0,0,1-1.31.52c-.51-2.18-.06-4.16,1.58-7.38-2-2.24-2-3.75.09-6.2.54,1.24,1.61,1.23,2.71,1.2,1.6,0,3.2.05,4.8,0a3.28,3.28,0,0,1,3.51,2.34,13.33,13.33,0,0,1,.82,2.93A27.28,27.28,0,0,1,64,38.57c-.32.88-.73,1.54-1.83,1.52C58.61,40,55,40.06,51.48,40c-.19,0-.38-.17-.64-.29a4.58,4.58,0,0,1,0-.83c.69-3.83.69-3.83,4.53-3.84,1.39,0,2.77,0,4.15,0,2.08-.11,3.29-1.07,3.61-3.1a18.29,18.29,0,0,0,.07-4.12,2.44,2.44,0,0,0-2.11-2.46,34.87,34.87,0,0,0-5.59.18c-.33,0-.83.69-.85,1.07a1.35,1.35,0,0,0,.81,1.06c2.58.24,2.52,2.15,2.63,4A5.72,5.72,0,0,1,58,32.59Z" transform="translate(58.21)"/><path class="cls-6" d="M21.8,39.86c0-2.46.08-4.92,0-7.36s-.15-4.94,1.13-7.57l-2.63-.13c-2-.1-4.08-.09-6.1-.31s-2.75-1.16-2.49-3.23a16.14,16.14,0,0,1,.54-2c3.82.93,7.59.77,11.35.78,1.08,0,1.69.43,1.6,1.54a26.7,26.7,0,0,1-.48,4.3c-.66,2.69-.13,5.35-.09,8a26.53,26.53,0,0,1-.15,3.89C24.26,39.21,23.53,39.7,21.8,39.86Z" transform="translate(58.21)"/></g></g></svg>